<mxfile host="Electron" agent="Mozilla/5.0 (Windows NT 10.0; Win64; x64) AppleWebKit/537.36 (KHTML, like Gecko) draw.io/24.7.8 Chrome/128.0.6613.36 Electron/32.0.1 Safari/537.36" version="24.7.8">
  <diagram name="Page-1" id="TJ8Hw3WQct_cEfJlCTjY">
    <mxGraphModel dx="9182" dy="4572" grid="1" gridSize="10" guides="1" tooltips="1" connect="1" arrows="1" fold="1" page="1" pageScale="1" pageWidth="850" pageHeight="1100" math="0" shadow="0">
      <root>
        <mxCell id="0" />
        <mxCell id="1" parent="0" />
        <mxCell id="8lTJB4vaAkftzT6UlgCj-1" value="ADMIN" style="shape=umlActor;verticalLabelPosition=bottom;verticalAlign=top;html=1;outlineConnect=0;" parent="1" vertex="1">
          <mxGeometry x="-1570" y="210" width="30" height="60" as="geometry" />
        </mxCell>
        <mxCell id="8lTJB4vaAkftzT6UlgCj-2" value="manage users" style="ellipse;whiteSpace=wrap;html=1;" parent="1" vertex="1">
          <mxGeometry x="-1930" y="480" width="200" height="80" as="geometry" />
        </mxCell>
        <mxCell id="8lTJB4vaAkftzT6UlgCj-3" value="manage sponsorship agreement" style="ellipse;whiteSpace=wrap;html=1;" parent="1" vertex="1">
          <mxGeometry x="-1670" y="480" width="490" height="80" as="geometry" />
        </mxCell>
        <mxCell id="8lTJB4vaAkftzT6UlgCj-4" value="generate repots" style="ellipse;whiteSpace=wrap;html=1;" parent="1" vertex="1">
          <mxGeometry x="-1180" y="440" width="330" height="80" as="geometry" />
        </mxCell>
        <mxCell id="8lTJB4vaAkftzT6UlgCj-10" value="" style="endArrow=classic;html=1;rounded=0;entryX=0.602;entryY=-0.029;entryDx=0;entryDy=0;entryPerimeter=0;exitX=0.5;exitY=0.5;exitDx=0;exitDy=0;exitPerimeter=0;" parent="1" source="8lTJB4vaAkftzT6UlgCj-1" target="8lTJB4vaAkftzT6UlgCj-2" edge="1">
          <mxGeometry width="50" height="50" relative="1" as="geometry">
            <mxPoint x="-1580" y="260" as="sourcePoint" />
            <mxPoint x="-2070" y="580" as="targetPoint" />
          </mxGeometry>
        </mxCell>
        <mxCell id="8lTJB4vaAkftzT6UlgCj-11" value="" style="endArrow=classic;html=1;rounded=0;entryX=0.274;entryY=0.013;entryDx=0;entryDy=0;entryPerimeter=0;exitX=0.5;exitY=0.5;exitDx=0;exitDy=0;exitPerimeter=0;" parent="1" source="8lTJB4vaAkftzT6UlgCj-1" target="8lTJB4vaAkftzT6UlgCj-4" edge="1">
          <mxGeometry width="50" height="50" relative="1" as="geometry">
            <mxPoint x="-1010" y="2" as="sourcePoint" />
            <mxPoint x="-1250" y="210" as="targetPoint" />
          </mxGeometry>
        </mxCell>
        <mxCell id="8lTJB4vaAkftzT6UlgCj-12" value="" style="endArrow=classic;html=1;rounded=0;entryX=0.432;entryY=-0.029;entryDx=0;entryDy=0;entryPerimeter=0;exitX=0;exitY=1;exitDx=0;exitDy=0;exitPerimeter=0;" parent="1" source="8lTJB4vaAkftzT6UlgCj-1" target="8lTJB4vaAkftzT6UlgCj-3" edge="1">
          <mxGeometry width="50" height="50" relative="1" as="geometry">
            <mxPoint x="-1540" y="310" as="sourcePoint" />
            <mxPoint x="-1500" y="388" as="targetPoint" />
          </mxGeometry>
        </mxCell>
        <mxCell id="8lTJB4vaAkftzT6UlgCj-13" value="SPONSEE" style="shape=umlActor;verticalLabelPosition=bottom;verticalAlign=top;html=1;outlineConnect=0;" parent="1" vertex="1">
          <mxGeometry x="-310" y="140" width="30" height="60" as="geometry" />
        </mxCell>
        <mxCell id="8lTJB4vaAkftzT6UlgCj-14" value="select sponsorship opportunity" style="ellipse;whiteSpace=wrap;html=1;" parent="1" vertex="1">
          <mxGeometry x="-480" y="450" width="490" height="80" as="geometry" />
        </mxCell>
        <mxCell id="8lTJB4vaAkftzT6UlgCj-15" value="Register a sponsor" style="ellipse;whiteSpace=wrap;html=1;" parent="1" vertex="1">
          <mxGeometry x="-750" y="320" width="200" height="80" as="geometry" />
        </mxCell>
        <mxCell id="8lTJB4vaAkftzT6UlgCj-16" value="confirm agreement" style="ellipse;whiteSpace=wrap;html=1;" parent="1" vertex="1">
          <mxGeometry x="-70" y="650" width="490" height="80" as="geometry" />
        </mxCell>
        <mxCell id="8lTJB4vaAkftzT6UlgCj-17" value="" style="endArrow=classic;html=1;rounded=0;entryX=0.563;entryY=0.096;entryDx=0;entryDy=0;entryPerimeter=0;exitX=0.5;exitY=0.5;exitDx=0;exitDy=0;exitPerimeter=0;" parent="1" target="8lTJB4vaAkftzT6UlgCj-16" edge="1">
          <mxGeometry width="50" height="50" relative="1" as="geometry">
            <mxPoint x="-280" y="190" as="sourcePoint" />
            <mxPoint x="325" y="441" as="targetPoint" />
            <Array as="points">
              <mxPoint x="20" y="380" />
            </Array>
          </mxGeometry>
        </mxCell>
        <mxCell id="8lTJB4vaAkftzT6UlgCj-18" value="" style="endArrow=classic;html=1;rounded=0;entryX=0.266;entryY=0.04;entryDx=0;entryDy=0;entryPerimeter=0;" parent="1" target="8lTJB4vaAkftzT6UlgCj-14" edge="1">
          <mxGeometry width="50" height="50" relative="1" as="geometry">
            <mxPoint x="-300" y="220" as="sourcePoint" />
            <mxPoint x="-338" y="324" as="targetPoint" />
          </mxGeometry>
        </mxCell>
        <mxCell id="8lTJB4vaAkftzT6UlgCj-20" value="" style="endArrow=classic;html=1;rounded=0;entryX=0.266;entryY=0.04;entryDx=0;entryDy=0;entryPerimeter=0;" parent="1" source="8lTJB4vaAkftzT6UlgCj-13" edge="1">
          <mxGeometry width="50" height="50" relative="1" as="geometry">
            <mxPoint x="-531" y="80" as="sourcePoint" />
            <mxPoint x="-580" y="333" as="targetPoint" />
          </mxGeometry>
        </mxCell>
        <mxCell id="8lTJB4vaAkftzT6UlgCj-21" value="negotiate terms" style="ellipse;whiteSpace=wrap;html=1;" parent="1" vertex="1">
          <mxGeometry x="640" y="520" width="290" height="80" as="geometry" />
        </mxCell>
        <mxCell id="8lTJB4vaAkftzT6UlgCj-22" value="create sponsorship request" style="ellipse;whiteSpace=wrap;html=1;" parent="1" vertex="1">
          <mxGeometry x="370" y="330" width="290" height="80" as="geometry" />
        </mxCell>
        <mxCell id="8lTJB4vaAkftzT6UlgCj-23" value="view sponsor offers" style="ellipse;whiteSpace=wrap;html=1;" parent="1" vertex="1">
          <mxGeometry x="780" y="350" width="290" height="80" as="geometry" />
        </mxCell>
        <mxCell id="8lTJB4vaAkftzT6UlgCj-24" value="SPONSOR" style="shape=umlActor;verticalLabelPosition=bottom;verticalAlign=top;html=1;outlineConnect=0;" parent="1" vertex="1">
          <mxGeometry x="730" y="110" width="30" height="60" as="geometry" />
        </mxCell>
        <mxCell id="8lTJB4vaAkftzT6UlgCj-25" value="" style="endArrow=classic;html=1;rounded=0;entryX=0.379;entryY=0;entryDx=0;entryDy=0;entryPerimeter=0;" parent="1" source="8lTJB4vaAkftzT6UlgCj-24" target="8lTJB4vaAkftzT6UlgCj-21" edge="1">
          <mxGeometry width="50" height="50" relative="1" as="geometry">
            <mxPoint x="860" as="sourcePoint" />
            <mxPoint x="960" y="30" as="targetPoint" />
          </mxGeometry>
        </mxCell>
        <mxCell id="8lTJB4vaAkftzT6UlgCj-26" value="" style="endArrow=classic;html=1;rounded=0;" parent="1" target="8lTJB4vaAkftzT6UlgCj-21" edge="1">
          <mxGeometry width="50" height="50" relative="1" as="geometry">
            <mxPoint x="410" y="680" as="sourcePoint" />
            <mxPoint x="460" y="630" as="targetPoint" />
          </mxGeometry>
        </mxCell>
        <mxCell id="8lTJB4vaAkftzT6UlgCj-27" value="" style="endArrow=classic;html=1;rounded=0;entryX=0.747;entryY=1.025;entryDx=0;entryDy=0;entryPerimeter=0;" parent="1" source="8lTJB4vaAkftzT6UlgCj-16" target="8lTJB4vaAkftzT6UlgCj-14" edge="1">
          <mxGeometry width="50" height="50" relative="1" as="geometry">
            <mxPoint x="-220" y="800" as="sourcePoint" />
            <mxPoint x="-170" y="750" as="targetPoint" />
          </mxGeometry>
        </mxCell>
        <mxCell id="8lTJB4vaAkftzT6UlgCj-28" value="" style="endArrow=classic;html=1;rounded=0;entryX=0.31;entryY=1.025;entryDx=0;entryDy=0;entryPerimeter=0;" parent="1" target="8lTJB4vaAkftzT6UlgCj-22" edge="1">
          <mxGeometry width="50" height="50" relative="1" as="geometry">
            <mxPoint x="659" y="540" as="sourcePoint" />
            <mxPoint x="440" y="420" as="targetPoint" />
          </mxGeometry>
        </mxCell>
        <mxCell id="8lTJB4vaAkftzT6UlgCj-29" value="" style="endArrow=classic;html=1;rounded=0;entryX=0.266;entryY=0.04;entryDx=0;entryDy=0;entryPerimeter=0;exitX=0;exitY=1;exitDx=0;exitDy=0;exitPerimeter=0;" parent="1" source="8lTJB4vaAkftzT6UlgCj-24" edge="1">
          <mxGeometry width="50" height="50" relative="1" as="geometry">
            <mxPoint x="600" y="97" as="sourcePoint" />
            <mxPoint x="550" y="330" as="targetPoint" />
          </mxGeometry>
        </mxCell>
        <mxCell id="8lTJB4vaAkftzT6UlgCj-30" value="" style="endArrow=classic;html=1;rounded=0;entryX=0.379;entryY=0;entryDx=0;entryDy=0;entryPerimeter=0;exitX=1;exitY=1;exitDx=0;exitDy=0;exitPerimeter=0;" parent="1" source="8lTJB4vaAkftzT6UlgCj-24" edge="1">
          <mxGeometry width="50" height="50" relative="1" as="geometry">
            <mxPoint x="900" as="sourcePoint" />
            <mxPoint x="905" y="350" as="targetPoint" />
          </mxGeometry>
        </mxCell>
        <mxCell id="8lTJB4vaAkftzT6UlgCj-31" value="USE CAS DIAGRAM FOR SPONSORSHIP MANAGEMENT SYSTEM" style="text;html=1;align=center;verticalAlign=middle;resizable=0;points=[];autosize=1;strokeColor=none;fillColor=none;" parent="1" vertex="1">
          <mxGeometry x="-480" y="-72" width="400" height="30" as="geometry" />
        </mxCell>
      </root>
    </mxGraphModel>
  </diagram>
</mxfile>
